<svg xmlns="http://www.w3.org/2000/svg" xmlns:xlink="http://www.w3.org/1999/xlink" width="500" zoomAndPan="magnify" viewBox="0 0 375 374.999991" height="500" preserveAspectRatio="xMidYMid meet" version="1.0"><defs><clipPath id="3cbe70d815"><path d="M 0.359375 0.660156 L 357.71875 0.660156 L 357.71875 280 L 0.359375 280 Z M 0.359375 0.660156 " clip-rule="nonzero"/></clipPath><clipPath id="3d64c2b923"><path d="M 96.332031 97.777344 L 145.226562 97.777344 L 145.226562 146.671875 L 96.332031 146.671875 Z M 96.332031 97.777344 " clip-rule="nonzero"/></clipPath><clipPath id="a6050f78cd"><path d="M 120.777344 97.777344 C 107.277344 97.777344 96.332031 108.722656 96.332031 122.226562 C 96.332031 135.726562 107.277344 146.671875 120.777344 146.671875 C 134.28125 146.671875 145.226562 135.726562 145.226562 122.226562 C 145.226562 108.722656 134.28125 97.777344 120.777344 97.777344 Z M 120.777344 97.777344 " clip-rule="nonzero"/></clipPath><clipPath id="502a76da4d"><path d="M 0.332031 0.777344 L 49.226562 0.777344 L 49.226562 49.671875 L 0.332031 49.671875 Z M 0.332031 0.777344 " clip-rule="nonzero"/></clipPath><clipPath id="07eafd6d99"><path d="M 24.777344 0.777344 C 11.277344 0.777344 0.332031 11.722656 0.332031 25.226562 C 0.332031 38.726562 11.277344 49.671875 24.777344 49.671875 C 38.28125 49.671875 49.226562 38.726562 49.226562 25.226562 C 49.226562 11.722656 38.28125 0.777344 24.777344 0.777344 Z M 24.777344 0.777344 " clip-rule="nonzero"/></clipPath><clipPath id="a61cfede98"><rect x="0" width="50" y="0" height="50"/></clipPath><clipPath id="d279b05d8c"><path d="M 214.457031 97.777344 L 263.351562 97.777344 L 263.351562 146.671875 L 214.457031 146.671875 Z M 214.457031 97.777344 " clip-rule="nonzero"/></clipPath><clipPath id="bf8ed39cf2"><path d="M 238.90625 97.777344 C 225.402344 97.777344 214.457031 108.722656 214.457031 122.226562 C 214.457031 135.726562 225.402344 146.671875 238.90625 146.671875 C 252.40625 146.671875 263.351562 135.726562 263.351562 122.226562 C 263.351562 108.722656 252.40625 97.777344 238.90625 97.777344 Z M 238.90625 97.777344 " clip-rule="nonzero"/></clipPath><clipPath id="8726252f8a"><path d="M 0.457031 0.777344 L 49.351562 0.777344 L 49.351562 49.671875 L 0.457031 49.671875 Z M 0.457031 0.777344 " clip-rule="nonzero"/></clipPath><clipPath id="b4a32346d3"><path d="M 24.90625 0.777344 C 11.402344 0.777344 0.457031 11.722656 0.457031 25.226562 C 0.457031 38.726562 11.402344 49.671875 24.90625 49.671875 C 38.40625 49.671875 49.351562 38.726562 49.351562 25.226562 C 49.351562 11.722656 38.40625 0.777344 24.90625 0.777344 Z M 24.90625 0.777344 " clip-rule="nonzero"/></clipPath><clipPath id="0244796576"><rect x="0" width="50" y="0" height="50"/></clipPath><clipPath id="21312fb6b5"><path d="M 101.367188 178.511719 L 255.394531 178.511719 L 255.394531 247.324219 L 101.367188 247.324219 Z M 101.367188 178.511719 " clip-rule="nonzero"/></clipPath><clipPath id="65840c3e88"><path d="M 152.710938 243.53125 C 160.605469 245.820312 169.578125 247.324219 178.382812 247.324219 C 187.191406 247.324219 195.667969 246.035156 203.476562 243.746094 C 203.640625 243.675781 203.808594 243.675781 203.972656 243.601562 C 233.300781 234.441406 254.902344 210.25 255.320312 184.042969 L 255.320312 178.511719 L 101.367188 178.511719 L 101.367188 184.039062 C 101.78125 210.394531 123.050781 234.585938 152.710938 243.53125 Z M 152.710938 243.53125 " clip-rule="nonzero"/></clipPath><clipPath id="4ca4be2049"><path d="M 0.367188 0.511719 L 154.394531 0.511719 L 154.394531 69.324219 L 0.367188 69.324219 Z M 0.367188 0.511719 " clip-rule="nonzero"/></clipPath><clipPath id="e59abbbcb4"><path d="M 51.710938 65.53125 C 59.605469 67.820312 68.578125 69.324219 77.382812 69.324219 C 86.191406 69.324219 94.667969 68.035156 102.476562 65.746094 C 102.640625 65.675781 102.808594 65.675781 102.972656 65.601562 C 132.300781 56.441406 153.902344 32.25 154.320312 6.042969 L 154.320312 0.511719 L 0.367188 0.511719 L 0.367188 6.039062 C 0.78125 32.394531 22.050781 56.585938 51.710938 65.53125 Z M 51.710938 65.53125 " clip-rule="nonzero"/></clipPath><clipPath id="d384ac94e2"><rect x="0" width="155" y="0" height="70"/></clipPath><clipPath id="f1ec92713a"><rect x="0" width="358" y="0" height="281"/></clipPath></defs><g transform="matrix(1, 0, 0, 1, 9, 46)"><g clip-path="url(#f1ec92713a)"><g clip-path="url(#3cbe70d815)"><path fill="#ffffff" d="M 114.898438 0.671875 L 112.335938 4.742188 C 103.164062 19.839844 94.007812 30.894531 84.859375 37.90625 C 80.480469 42 67.523438 48.640625 45.992188 57.820312 C 37.203125 62.882812 32.042969 66.3125 30.519531 68.105469 C 19.449219 79.074219 12.621094 89.253906 10.046875 98.640625 C 1.519531 121.890625 -1.304688 147.277344 1.570312 174.800781 C 4.890625 201.054688 14.707031 222.121094 31.023438 238.003906 C 62.996094 269.800781 119.695312 283.480469 201.117188 279.050781 C 241.34375 277.238281 270.355469 272.765625 288.152344 265.628906 C 310.878906 258.230469 328.453125 244.710938 340.871094 225.082031 C 343.730469 222.363281 348.078125 211.183594 353.914062 191.539062 C 357.589844 175.03125 358.515625 158.320312 356.6875 141.398438 C 353.878906 115.503906 345.167969 94.488281 330.5625 78.355469 C 318.902344 63.925781 298 52.394531 267.847656 43.761719 C 254.027344 40.542969 241.671875 38.703125 230.78125 38.242188 C 226.496094 37.308594 204.726562 37.71875 165.46875 39.476562 C 158.3125 39.390625 152.160156 38.421875 147.015625 36.570312 C 134.0625 31.417969 123.355469 19.453125 114.898438 0.671875 " fill-opacity="1" fill-rule="nonzero"/></g><g clip-path="url(#3d64c2b923)"><g clip-path="url(#a6050f78cd)"><g transform="matrix(1, 0, 0, 1, 96, 97)"><g clip-path="url(#a61cfede98)"><g clip-path="url(#502a76da4d)"><g clip-path="url(#07eafd6d99)"><path fill="#121214" d="M 0.332031 0.777344 L 49.226562 0.777344 L 49.226562 49.671875 L 0.332031 49.671875 Z M 0.332031 0.777344 " fill-opacity="1" fill-rule="nonzero"/></g></g></g></g></g></g><g clip-path="url(#d279b05d8c)"><g clip-path="url(#bf8ed39cf2)"><g transform="matrix(1, 0, 0, 1, 214, 97)"><g clip-path="url(#0244796576)"><g clip-path="url(#8726252f8a)"><g clip-path="url(#b4a32346d3)"><path fill="#121214" d="M 0.457031 0.777344 L 49.351562 0.777344 L 49.351562 49.671875 L 0.457031 49.671875 Z M 0.457031 0.777344 " fill-opacity="1" fill-rule="nonzero"/></g></g></g></g></g></g><g clip-path="url(#21312fb6b5)"><g clip-path="url(#65840c3e88)"><g transform="matrix(1, 0, 0, 1, 101, 178)"><g clip-path="url(#d384ac94e2)"><g clip-path="url(#4ca4be2049)"><g clip-path="url(#e59abbbcb4)"><path fill="#121214" d="M 0.367188 0.511719 L 154.394531 0.511719 L 154.394531 69.324219 L 0.367188 69.324219 Z M 0.367188 0.511719 " fill-opacity="1" fill-rule="nonzero"/></g></g></g></g></g></g></g></g></svg>